<?xml version="1.0" standalone="no"?>
<!DOCTYPE svg PUBLIC "-//W3C//DTD SVG 20010904//EN"
 "http://www.w3.org/TR/2001/REC-SVG-20010904/DTD/svg10.dtd">
<svg version="1.0" xmlns="http://www.w3.org/2000/svg"
 width="512.000000pt" height="512.000000pt" viewBox="0 0 512.000000 512.000000"
 preserveAspectRatio="xMidYMid meet">

<g transform="translate(0.000000,512.000000) scale(0.100000,-0.100000)"
fill="#000000" stroke="none">
<path d="M1958 3208 c-331 -319 -620 -597 -641 -617 l-39 -38 127 -77 127 -77
82 78 81 78 3 -513 2 -512 885 0 885 0 0 512 0 513 81 -82 82 -81 104 86 105
87 -211 205 -212 205 -2 352 -2 353 -71 0 c-39 0 -99 -3 -132 -6 l-62 -7 -2
-178 -3 -177 -292 238 -291 238 -604 -580z m784 348 c76 -62 141 -115 145
-119 3 -4 -118 -7 -269 -7 l-276 0 121 120 c67 66 127 120 132 119 6 0 72 -50
147 -113z m658 -46 l0 -80 -85 0 -85 0 0 80 0 80 85 0 85 0 0 -80z m-684 -218
c71 -71 258 -255 417 -410 l287 -281 0 -499 0 -499 -262 -6 c-145 -3 -266 -3
-270 -1 -5 3 -8 171 -8 375 l0 369 -264 0 -263 0 -7 -46 c-3 -26 -6 -195 -6
-375 l0 -329 -288 0 -289 0 -6 508 -6 507 147 145 c195 193 684 670 687 670 1
0 60 -58 131 -128z m109 -1352 l0 -345 -212 -3 -213 -2 0 343 c0 189 3 347 7
351 4 3 99 5 212 4 l206 -3 0 -345z"/>
<path d="M1030 1119 c109 -104 213 -155 370 -178 300 -46 822 -67 1420 -57
845 14 1089 57 1261 219 30 28 44 42 30 31 -54 -46 -154 -103 -214 -123 -118
-40 -194 -42 -1402 -39 -1051 4 -1165 5 -1215 21 -84 25 -189 81 -250 133
l-55 46 55 -53z"/>
</g>
</svg>
