<?xml version="1.0" standalone="no"?>
<!DOCTYPE svg PUBLIC "-//W3C//DTD SVG 20010904//EN"
 "http://www.w3.org/TR/2001/REC-SVG-20010904/DTD/svg10.dtd">
<svg version="1.0" xmlns="http://www.w3.org/2000/svg"
 width="473.000000pt" height="527.000000pt" viewBox="0 0 473.000000 527.000000"
 preserveAspectRatio="xMidYMid meet">

<g transform="translate(0.000000,527.000000) scale(0.100000,-0.100000)"
fill="#000000" stroke="none">
<path d="M1780 4638 c1 -7 10 -58 20 -113 35 -175 90 -489 89 -505 0 -13 -1
-13 -6 0 -6 15 -62 132 -190 399 -35 73 -66 131 -68 129 -12 -12 97 -331 146
-429 39 -79 151 -203 157 -174 5 22 -57 494 -74 565 -19 76 -75 174 -74 128z"/>
<path d="M2822 4613 c-33 -66 -52 -172 -108 -603 -8 -63 -17 -116 -20 -119 -2
-2 -4 126 -4 285 l-1 289 -22 -40 c-19 -35 -22 -54 -21 -165 0 -69 6 -192 14
-275 12 -132 16 -152 36 -172 13 -13 27 -23 31 -23 4 0 23 24 42 53 61 93 125
162 186 202 70 46 391 202 485 236 51 19 60 25 40 27 -53 8 -215 -20 -275 -47
-75 -35 -247 -150 -342 -230 l-72 -61 74 152 c51 105 87 197 115 292 22 77 39
141 37 142 -4 4 -168 -333 -223 -459 -22 -48 -40 -83 -42 -79 -1 5 17 125 42
268 51 298 61 364 52 364 -3 0 -14 -17 -24 -37z"/>
<path d="M2305 4473 c-21 -14 -60 -48 -86 -74 -41 -42 -50 -59 -63 -120 -22
-94 -23 -202 -2 -258 9 -24 16 -54 16 -67 0 -15 6 -24 15 -24 25 0 65 -47 65
-76 l0 -26 -34 29 c-19 15 -36 37 -39 48 -3 15 -5 14 -6 -7 0 -15 4 -30 9 -33
15 -9 11 -77 -6 -100 -10 -14 -13 -31 -9 -57 6 -31 4 -38 -9 -38 -9 0 -18 11
-22 25 -5 19 -10 23 -19 15 -6 -5 -15 -7 -19 -3 -4 4 -17 -5 -29 -20 l-22 -28
-1 48 c0 37 -4 48 -16 47 -9 -1 -42 38 -79 93 -66 98 -129 160 -151 147 -8 -5
-9 -2 -5 9 5 12 -1 19 -21 24 -15 4 -35 6 -44 4 -10 -1 -18 3 -18 9 0 6 5 8
12 4 7 -4 8 -3 4 5 -9 15 -67 9 -250 -24 -109 -20 -192 -50 -220 -80 -12 -12
-42 -34 -68 -49 -68 -39 -125 -108 -185 -223 -70 -133 -102 -233 -119 -378
-16 -138 -18 -281 -4 -290 14 -9 86 60 137 132 26 37 61 72 82 83 20 10 77 60
126 110 55 56 115 106 155 128 76 43 83 48 146 86 l48 29 45 -26 c25 -14 47
-29 49 -35 1 -5 -8 -20 -22 -33 -62 -63 -123 -201 -138 -314 -9 -72 -8 -88 5
-108 9 -14 12 -28 7 -33 -15 -16 -17 -135 -5 -291 11 -141 24 -191 45 -178 4
2 15 -14 25 -36 18 -38 39 -65 31 -37 -2 7 -7 29 -10 48 -10 57 12 13 24 -50
14 -70 21 -92 26 -88 2 2 11 32 19 66 15 56 15 64 0 92 -14 27 -14 30 0 30 69
0 124 -120 126 -275 l1 -80 19 75 c26 102 25 151 -4 187 -57 71 -56 68 -19 49
47 -24 74 -90 80 -191 3 -56 -1 -93 -12 -125 -19 -55 -15 -61 12 -16 27 46 52
120 52 154 0 30 -42 126 -68 156 -14 16 -12 16 13 -2 50 -38 114 -121 121
-158 11 -60 -6 -139 -47 -225 -43 -89 -29 -89 29 1 104 162 77 321 -69 393
l-47 24 50 12 c60 13 128 14 162 1 32 -12 51 -41 93 -143 33 -80 34 -81 29
-35 -8 70 -57 170 -97 199 -30 21 -44 24 -130 24 l-97 0 42 28 c79 53 162 62
201 22 14 -13 25 -20 25 -16 0 5 -18 25 -41 46 -37 34 -44 36 -82 30 -23 -4
-62 -16 -87 -27 -96 -42 -95 -42 -53 8 35 44 36 46 13 39 -14 -4 -30 -12 -37
-17 -7 -5 -18 -6 -24 -2 -9 5 -10 2 -6 -9 3 -10 3 -17 -1 -17 -4 0 -15 -12
-24 -27 -15 -25 -17 -26 -18 -7 0 11 7 29 15 40 8 10 15 22 15 26 0 7 -41 23
-52 20 -5 -1 -8 15 -8 35 -1 21 -5 57 -9 81 -8 41 -8 42 20 42 30 0 32 -5 56
-115 7 -36 8 -33 11 38 2 42 7 77 12 77 17 0 40 -12 35 -20 -2 -4 8 -5 23 -2
23 5 25 3 14 -10 -10 -13 -10 -17 3 -22 9 -3 15 0 15 8 0 8 7 16 15 20 16 6
37 -24 32 -46 -2 -7 -2 -9 1 -5 2 5 13 -4 24 -20 19 -27 19 -27 12 -3 -3 14
-12 33 -20 44 -7 10 -10 25 -7 34 4 9 2 13 -4 9 -5 -4 -15 5 -22 20 -10 22
-10 25 4 19 9 -3 20 -6 23 -6 4 0 0 -5 -8 -11 -12 -8 -10 -9 7 -4 23 6 41 -9
23 -20 -6 -4 -7 -11 -4 -17 5 -7 2 -8 -7 -3 -11 6 -12 5 -1 -6 9 -10 15 -10
24 -1 9 9 9 12 -1 12 -7 0 -10 4 -6 10 3 5 13 7 23 4 11 -4 9 2 -8 16 -14 13
-25 35 -27 53 -1 19 1 26 5 17 4 -8 14 -16 22 -18 8 -2 12 0 8 3 -4 4 -3 17 3
28 9 15 8 18 -2 12 -15 -10 -119 -13 -119 -4 0 10 28 19 56 19 13 0 24 5 24
10 0 12 56 -14 62 -28 3 -9 163 -112 174 -112 3 0 -10 22 -30 49 -20 26 -32
52 -28 56 4 5 1 5 -5 1 -7 -4 -13 -3 -13 2 0 12 -79 90 -112 109 -18 12 -28
27 -31 52 -2 20 -3 37 -2 39 2 2 29 -4 61 -13 50 -14 94 -24 251 -60 16 -4 21
-1 17 8 -6 17 84 100 138 128 45 23 79 24 123 3 36 -17 115 -81 115 -93 0 -4
-26 -8 -59 -8 -108 -1 -181 -53 -216 -153 -21 -60 -29 -139 -19 -197 l8 -48 6
75 c7 89 40 185 80 228 29 32 93 55 180 66 l45 6 -42 -16 c-24 -9 -63 -34 -88
-57 -38 -35 -48 -52 -60 -102 -16 -65 -18 -139 -6 -170 6 -14 9 0 13 45 11
141 124 280 226 280 34 0 20 -13 -38 -34 -25 -10 -52 -26 -58 -37 -15 -24 -74
-180 -70 -185 2 -1 16 22 32 52 64 122 203 214 264 176 9 -6 6 -12 -12 -20
-38 -17 -53 -48 -75 -159 -23 -109 -26 -147 -13 -125 7 10 12 8 23 -5 43 -51
42 -52 -28 -23 -97 41 -131 45 -170 21 -17 -11 -37 -30 -44 -42 l-12 -22 28
21 c44 35 121 25 205 -27 l35 -21 -85 2 c-125 3 -141 -6 -213 -124 -9 -15 -19
-45 -23 -67 l-7 -41 -111 -1 -111 -1 70 -14 c39 -7 87 -13 108 -13 66 -1 43
-25 -40 -43 -43 -9 -105 -26 -138 -39 -55 -22 -58 -24 -30 -28 29 -3 307 15
373 25 20 3 30 9 26 16 -4 7 -3 8 4 4 7 -4 12 -15 12 -26 0 -14 -13 -21 -52
-31 -29 -6 -67 -18 -84 -25 -27 -11 -30 -17 -26 -44 4 -28 7 -31 29 -25 14 3
38 9 54 12 16 3 26 10 22 16 -4 6 -1 7 6 3 7 -5 26 -2 42 4 26 11 32 10 43 -5
12 -16 8 -21 -32 -42 -57 -30 -124 -77 -141 -97 -21 -25 4 -19 38 9 l30 26 3
-22 c2 -13 10 -24 18 -26 13 -4 13 -3 0 6 -8 6 -10 11 -5 11 6 0 15 -4 20 -9
12 -12 117 63 107 75 -4 5 7 -4 24 -19 l32 -29 35 46 c19 25 36 43 39 41 3 -3
16 5 30 18 24 22 48 25 48 6 0 -6 -4 -7 -10 -4 -5 3 -10 1 -10 -5 0 -7 7 -10
15 -6 8 3 15 1 15 -5 0 -6 5 -7 11 -3 8 4 7 9 -2 15 -11 7 -9 9 6 10 19 0 18
1 -2 11 -13 6 -23 16 -23 22 0 6 5 5 12 -2 7 -7 19 -12 28 -11 9 0 6 4 -7 9
-13 5 -23 16 -23 24 0 8 -7 22 -16 30 -8 9 -11 16 -5 16 6 0 11 11 11 25 0 28
3 29 31 15 10 -6 19 -20 19 -30 0 -11 6 -20 13 -20 8 0 7 -4 -3 -10 -20 -13
-33 -13 -25 0 4 6 1 18 -6 26 -20 24 -30 -5 -13 -38 8 -15 17 -28 20 -28 3 0
2 6 -2 13 -6 9 -4 9 8 -1 14 -11 17 -10 24 10 4 13 7 31 5 41 -1 9 3 17 9 17
6 0 8 -6 5 -12 -3 -7 0 -4 7 6 7 11 20 27 29 36 9 9 19 30 23 46 4 16 3 24 -2
17 -5 -8 -12 3 -21 32 -12 40 -11 51 9 109 12 36 26 68 31 71 5 4 5 -5 -1 -20
-11 -30 -13 -92 -3 -150 5 -31 8 -35 14 -20 4 11 8 40 8 65 1 48 26 99 67 138
17 17 24 34 24 62 0 33 -5 42 -27 54 -16 7 -46 16 -68 18 -22 3 -33 3 -24 1 9
-2 29 -17 44 -34 25 -25 26 -29 10 -29 -10 0 -30 11 -44 24 -15 13 -48 36 -76
52 -41 23 -47 25 -36 9 8 -11 32 -37 55 -57 35 -33 38 -38 20 -38 -12 0 -47
21 -78 47 l-57 48 33 27 c29 23 35 25 47 13 13 -13 18 -10 35 22 28 49 64 74
117 79 39 4 41 3 17 -7 -23 -9 -56 -65 -44 -76 2 -2 22 4 45 13 40 16 42 19
39 52 -2 29 -8 37 -28 42 l-25 6 23 8 c16 5 21 13 17 26 -3 10 -1 21 5 25 5 3
10 12 10 20 0 11 -11 13 -49 8 -43 -5 -51 -3 -68 17 -28 35 -56 63 -83 85
l-25 20 16 -20 c18 -23 42 -86 34 -93 -10 -10 -35 22 -41 53 -5 31 -64 131
-64 110 0 -5 7 -35 15 -65 19 -72 19 -77 -5 -55 -11 10 -20 28 -20 41 0 28
-29 91 -44 97 -7 3 -11 -10 -9 -37 1 -22 0 -32 -3 -21 -8 31 -26 65 -36 65 -5
0 -6 -10 -3 -22 2 -13 -2 -36 -9 -53 l-14 -30 -1 50 c-1 45 -29 115 -47 115
-3 0 -3 -24 0 -52 6 -53 6 -53 -11 -28 -91 125 -133 154 -193 132 -23 -9 -23
-9 12 -16 24 -4 47 -19 68 -42 39 -45 84 -113 78 -119 -2 -2 -31 15 -63 38
-56 39 -64 42 -125 42 -57 0 -71 -4 -111 -32 -32 -22 -50 -29 -60 -22 -8 5
-18 9 -24 8 -5 0 0 -5 13 -13 20 -10 21 -14 9 -24 -7 -7 -18 -8 -22 -4 -5 4
-5 1 0 -7 4 -7 3 -16 -2 -20 -5 -3 -16 -16 -24 -28 l-15 -22 -65 39 c-35 21
-90 47 -121 57 -44 14 -58 23 -61 41 -4 20 -1 23 21 20 18 -2 28 -11 32 -28
l6 -25 6 24 c6 22 10 23 72 19 64 -4 86 -11 73 -24 -4 -4 -12 -2 -19 3 -7 6
-21 7 -31 4 -18 -7 -18 -8 -1 -21 11 -9 15 -10 10 -2 -14 23 15 12 40 -15 14
-15 22 -33 19 -41 -4 -12 -3 -13 10 -2 19 16 20 44 1 37 -8 -3 -17 0 -20 8 -3
9 0 12 10 8 17 -6 18 8 2 26 -7 7 -8 12 -3 11 29 -6 44 1 38 17 -5 12 -3 14 8
8 8 -4 11 -5 7 0 -4 4 -3 14 4 22 9 11 14 11 32 -4 15 -13 17 -14 8 -2 -6 9
-9 19 -6 22 4 4 -3 5 -15 2 -13 -2 -21 1 -21 11 0 9 -12 14 -37 15 -21 0 -32
3 -25 6 6 2 10 8 8 12 -3 4 0 13 5 21 8 12 9 11 7 -5 -2 -12 4 -21 16 -23 18
-4 18 -3 -1 24 -14 21 -18 36 -12 54 12 43 10 56 -11 57 -11 1 -18 -2 -15 -7
3 -5 1 -11 -5 -15 -16 -10 -12 21 5 35 12 10 15 10 16 -1 1 -8 5 0 9 16 l8 30
1 -27 c0 -15 6 -30 11 -33 6 -3 10 -15 10 -26 0 -14 -4 -18 -12 -13 -7 4 -2
-4 12 -18 29 -31 42 -27 36 9 -3 14 1 41 9 61 20 46 19 72 -2 73 -11 0 -13 3
-5 6 6 2 10 8 7 13 -12 20 26 17 42 -4 20 -25 47 -22 72 8 10 12 17 14 27 5
16 -13 19 -39 4 -39 -5 0 -10 -7 -10 -16 0 -8 4 -13 9 -10 9 6 25 -49 21 -74
-1 -12 1 -12 11 -3 10 10 10 18 1 38 -16 34 -15 35 8 35 12 0 17 -5 14 -13 -3
-8 2 -20 11 -27 13 -11 14 -10 9 5 -5 13 -4 16 4 11 7 -4 12 -1 12 8 0 9 -4
16 -8 16 -5 0 -8 10 -8 22 1 15 -7 24 -24 29 -20 6 -17 7 18 8 23 1 42 5 42
10 0 4 -24 7 -52 5 -45 -3 -48 -2 -23 6 17 5 47 12 68 15 35 6 52 24 25 26 -7
1 -2 5 12 9 23 7 22 8 -10 9 -33 1 -82 20 -52 21 9 0 8 7 -4 25 -9 14 -14 28
-11 31 3 3 8 -4 12 -15 3 -12 13 -21 21 -21 12 0 12 4 -2 25 -9 14 -14 28 -11
31 3 3 8 -4 12 -15 3 -12 13 -21 22 -21 14 0 14 2 0 18 -19 20 -23 37 -7 27 6
-3 10 -4 10 -1 0 3 -18 15 -40 26 l-40 20 0 73 c0 39 7 94 15 121 19 63 19
120 -1 227 -18 102 -42 136 -135 198 -71 47 -99 50 -154 14z m231 -206 c-3
-12 -8 -66 -12 -119 -5 -75 -10 -95 -20 -91 -10 4 -14 -5 -14 -32 0 -29 -3
-36 -17 -33 -12 2 -19 14 -21 36 -3 33 -19 43 -28 17 -13 -32 -69 -12 -92 32
-24 44 -15 54 25 28 l36 -25 26 47 c68 124 133 201 117 140z m-80 -13 c19 7
20 10 -26 -80 l-40 -79 5 45 c8 81 17 125 29 132 6 4 12 1 14 -8 2 -9 10 -13
18 -10z m93 -160 c-14 -17 -5 -18 22 -3 18 9 19 8 13 -18 -9 -39 -13 -43 -35
-43 -23 0 -25 34 -7 95 12 38 12 39 16 12 2 -16 -2 -35 -9 -43z m-1019 -185
c0 -6 -4 -7 -10 -4 -5 3 -10 11 -10 16 0 6 5 7 10 4 6 -3 10 -11 10 -16z m35
-8 c3 -5 2 -12 -3 -15 -5 -3 -9 1 -9 9 0 17 3 19 12 6z m-100 -20 c3 -5 2 -12
-3 -15 -5 -3 -9 1 -9 9 0 17 3 19 12 6z m115 -27 c0 -2 -7 -4 -15 -4 -8 0 -15
4 -15 10 0 5 7 7 15 4 8 -4 15 -8 15 -10z m-105 -55 c-6 -16 -9 -18 -16 -8 -4
8 -3 19 3 26 15 18 21 9 13 -18z m1010 -49 c-3 -6 4 -14 16 -18 18 -7 19 -10
6 -15 -9 -3 -18 0 -21 9 -3 9 -10 13 -15 9 -5 -3 -13 0 -17 6 -4 7 -3 9 4 5 6
-3 13 -2 17 4 3 5 8 10 11 10 3 0 2 -5 -1 -10z m52 -22 c-3 -7 -5 -2 -5 12 0
14 2 19 5 13 2 -7 2 -19 0 -25z m38 22 c3 -5 1 -10 -4 -10 -6 0 -11 5 -11 10
0 6 2 10 4 10 3 0 8 -4 11 -10z m20 -39 c-4 -14 3 -22 27 -34 26 -13 29 -17
12 -17 -27 0 -56 32 -48 54 9 22 17 20 9 -3z m-32 -42 c-6 -20 11 -27 20 -9 3
6 4 5 3 -2 -4 -18 -56 -20 -57 -2 -4 35 -3 39 9 37 6 -2 12 3 12 10 0 9 3 8 9
-2 5 -7 6 -22 4 -32z m-128 22 c3 -5 2 -12 -3 -15 -5 -3 -9 1 -9 9 0 17 3 19
12 6z m38 -11 c-3 -11 -9 -17 -15 -14 -5 3 -4 12 3 20 16 19 18 18 12 -6z m37
-30 c8 -5 11 -10 5 -10 -5 0 -17 5 -25 10 -8 5 -10 10 -5 10 6 0 17 -5 25 -10z
m-20 -17 c0 -5 -4 -14 -9 -21 -7 -11 -9 -11 -14 1 -3 8 -3 18 0 21 9 8 23 7
23 -1z m-716 -39 c3 -8 10 -13 14 -10 13 8 32 -38 25 -62 -3 -14 -16 -21 -46
-25 -50 -7 -54 -4 -39 28 7 14 12 39 12 55 0 32 23 42 34 14z m596 0 c0 -8
-19 -13 -24 -6 -3 5 1 9 9 9 8 0 15 -2 15 -3z m-1286 -30 c3 -8 2 -12 -4 -9
-6 3 -10 10 -10 16 0 14 7 11 14 -7z m43 2 c-3 -8 -1 -17 6 -20 9 -3 9 -5 0
-5 -15 -1 -26 16 -18 29 9 15 18 12 12 -4z m1458 4 c3 -5 -3 -10 -14 -10 -12
0 -21 5 -21 10 0 6 6 10 14 10 8 0 18 -4 21 -10z m-1415 -16 c0 -8 -4 -12 -10
-9 -5 3 -10 10 -10 16 0 5 5 9 10 9 6 0 10 -7 10 -16z m707 -23 c10 -16 9 -20
-8 -24 -15 -4 -19 0 -19 19 0 29 11 31 27 5z m506 6 c4 3 7 1 7 -6 0 -8 -7
-11 -15 -7 -8 3 -15 1 -15 -4 0 -6 3 -10 8 -10 4 0 7 -15 7 -34 0 -19 -3 -32
-7 -30 -4 3 -8 18 -8 34 0 15 -6 31 -12 34 -10 5 -10 7 0 12 6 3 9 11 5 17 -5
8 -2 8 9 0 8 -7 18 -10 21 -6z m-1276 -4 c-4 -3 1 -12 11 -20 15 -13 15 -13
-4 -4 -17 8 -25 7 -34 -4 -14 -17 -9 -61 7 -58 8 2 10 -4 6 -14 -4 -11 -8 -13
-11 -5 -2 7 -8 9 -14 6 -6 -4 -8 12 -6 42 2 28 8 49 15 49 6 0 15 3 19 8 4 4
10 7 12 7 3 0 2 -3 -1 -7z m83 -34 c0 -5 -7 -9 -15 -9 -8 0 -15 7 -15 15 0 9
6 12 15 9 8 -4 15 -10 15 -15z m-43 -21 c-3 -7 -5 -2 -5 12 0 14 2 19 5 13 2
-7 2 -19 0 -25z m1080 1 c-1 -4 7 -14 17 -22 17 -12 17 -14 2 -20 -9 -4 -16
-1 -16 5 0 6 -7 19 -15 28 -13 14 -13 17 -1 17 8 0 14 -4 13 -8z m-1096 -32
l11 -22 -21 22 c-22 23 -28 39 -11 28 5 -3 15 -16 21 -28z m86 18 c0 -8 -7
-15 -15 -15 -12 0 -12 3 -2 15 7 8 13 15 15 15 1 0 2 -7 2 -15z m1060 -37 c-3
-7 -5 -2 -5 12 0 14 2 19 5 13 2 -7 2 -19 0 -25z m-1077 12 c12 -8 9 -10 -12
-10 -16 0 -28 -4 -28 -10 0 -5 11 -10 25 -10 14 0 25 -4 25 -10 0 -13 -22 -13
-57 1 -25 9 -26 11 -10 20 9 6 15 14 12 20 -8 12 26 11 45 -1z m63 -14 c-3
-16 -10 -23 -19 -19 -13 5 -12 8 2 24 22 24 22 24 17 -5z m687 5 c0 -11 6 -22
13 -25 8 -4 7 -5 -3 -4 -8 1 -37 -2 -65 -6 -27 -4 -70 -9 -95 -12 -25 -2 -61
-6 -80 -9 l-35 -5 40 18 c63 29 146 47 154 33 6 -9 15 -6 32 8 30 26 39 26 39
2z m-834 -18 c-2 -9 -9 -19 -17 -21 -11 -3 -11 -1 1 7 8 6 11 11 7 11 -5 0 -5
5 -2 10 9 15 14 12 11 -7z m977 0 c-7 -2 -21 -2 -30 0 -10 3 -4 5 12 5 17 0
24 -2 18 -5z m-1031 -29 c-13 -9 -26 -13 -29 -10 -4 3 -1 6 6 6 7 0 9 5 6 10
-3 6 4 10 17 10 l22 0 -22 -16z m182 -5 c-6 -11 -24 -2 -24 11 0 5 7 7 15 4 8
-4 12 -10 9 -15z m1027 -10 c-5 -13 -10 -19 -10 -12 -1 15 10 45 15 40 3 -2 0
-15 -5 -28z m-29 -6 c-4 -23 -3 -23 54 -17 41 5 56 3 49 -4 -5 -6 -23 -13 -40
-15 -16 -2 -11 -3 11 -2 40 2 41 2 23 -16 -17 -17 -21 -17 -56 -3 -21 9 -41
20 -44 26 -3 5 -10 8 -15 7 -23 -4 -33 2 -27 18 6 15 7 15 14 -3 7 -16 8 -15
8 7 1 14 7 26 14 26 9 0 12 -9 9 -24z m-87 -3 c3 -5 1 -10 -4 -10 -6 0 -11 5
-11 10 0 6 2 10 4 10 3 0 8 -4 11 -10z m-268 -6 c-3 -3 -12 -4 -19 -1 -8 3 -5
6 6 6 11 1 17 -2 13 -5z m-742 -24 c3 -5 1 -10 -4 -10 -6 0 -11 5 -11 10 0 6
2 10 4 10 3 0 8 -4 11 -10z m698 -27 c-7 -2 -21 -2 -30 0 -10 3 -4 5 12 5 17
0 24 -2 18 -5z m140 -10 c-7 -2 -19 -2 -25 0 -7 3 -2 5 12 5 14 0 19 -2 13 -5z
m4 -19 c-3 -3 -12 -4 -19 -1 -8 3 -5 6 6 6 11 1 17 -2 13 -5z m-13 -95 c-16
-18 -11 -24 18 -21 3 1 9 -5 12 -13 7 -19 1 -19 -29 1 -32 21 -35 65 -5 57 20
-5 20 -7 4 -24z m-1054 1 c0 -5 -5 -10 -11 -10 -5 0 -7 5 -4 10 3 6 8 10 11
10 2 0 4 -4 4 -10z m1021 -150 c6 0 7 9 4 21 -6 18 -5 19 14 7 12 -7 17 -14
11 -16 -6 -2 -8 -8 -4 -13 3 -5 -1 -9 -10 -9 -8 0 -20 -2 -28 -3 -7 -2 -10 -2
-7 0 3 2 5 16 4 31 -2 19 -1 20 2 5 2 -13 9 -23 14 -23z m-124 -2 c-3 -8 -6
-5 -6 6 -1 11 2 17 5 13 3 -3 4 -12 1 -19z m1128 -24 c-35 -51 -72 -133 -80
-174 -6 -29 -1 -24 25 28 35 69 87 128 127 143 13 5 48 9 76 9 l52 -1 -29 -22
c-64 -50 -210 -209 -166 -182 10 6 45 -53 37 -62 -3 -2 -8 4 -11 15 -5 15 -43
42 -60 42 -2 0 5 -17 15 -37 29 -57 23 -71 -11 -25 -16 23 -43 48 -60 57 -35
18 -35 19 -14 93 12 41 29 68 65 104 26 26 50 48 53 48 3 0 -6 -16 -19 -36z
m-955 -34 c0 -5 -9 -9 -20 -7 -30 5 -32 12 -5 15 14 1 25 -3 25 -8z m-220 -23
c8 -3 0 -6 -17 -6 -18 -1 -33 4 -33 10 0 5 5 7 10 4 6 -3 10 0 10 7 0 9 3 9 8
2 4 -6 14 -14 22 -17z m100 3 c4 -7 17 -10 28 -8 18 5 33 -8 31 -28 0 -4 5
-10 11 -14 8 -5 7 -9 -5 -14 -10 -3 -25 3 -40 18 -13 13 -26 19 -28 13 -2 -6
-11 -8 -21 -4 -11 5 -16 13 -12 23 3 8 2 13 -3 10 -5 -3 -11 0 -14 8 -7 18 42
14 53 -4z m-143 -176 c-1 -1 -11 4 -21 12 -11 8 -14 14 -8 14 7 0 12 8 13 18
0 9 5 4 10 -12 4 -17 7 -31 6 -32z m12 -29 c10 -10 -29 -34 -45 -28 -12 4 -12
8 -2 21 11 13 10 14 -14 9 -15 -4 -29 -3 -33 2 -6 11 83 6 94 -4z m51 -19 c0
-2 -7 -6 -15 -10 -8 -3 -15 -1 -15 4 0 6 7 10 15 10 8 0 15 -2 15 -4z m-140
-41 c-17 -21 -1 -19 24 3 21 17 21 17 2 -5 -11 -13 -28 -23 -39 -23 -19 0 -20
1 -2 20 21 23 34 27 15 5z m1404 -57 c-16 -30 -15 -62 3 -128 5 -21 4 -23 -8
-14 -8 6 -35 19 -61 29 l-47 17 19 37 c33 61 62 88 98 90 9 1 8 -7 -4 -31z
m-260 5 l68 -16 -38 -19 c-21 -10 -48 -27 -60 -39 -12 -12 -39 -22 -65 -24
-24 -2 -64 -10 -89 -18 l-45 -14 63 -4 c54 -3 62 -2 62 14 0 9 7 17 15 17 18
0 18 -1 0 -36 -8 -16 -15 -37 -15 -48 0 -12 -5 -16 -16 -12 -9 3 -37 6 -62 6
-76 0 -78 6 -32 97 34 69 47 84 78 97 47 19 54 19 136 -1z m129 -62 c-23 -29
-42 -46 -47 -40 -14 12 13 58 44 74 42 24 43 17 3 -34z m-68 -5 c-10 -14 -22
-23 -28 -19 -6 3 -7 1 -3 -5 4 -6 0 -25 -9 -41 -8 -17 -15 -41 -15 -54 0 -12
-6 -29 -12 -36 -10 -11 -10 -13 0 -7 7 4 12 1 12 -7 0 -16 -27 -30 -41 -21 -5
3 -12 -2 -15 -10 -12 -31 -25 -15 -23 27 3 51 25 100 41 91 6 -4 8 -3 5 3 -7
11 92 117 100 109 3 -2 -3 -16 -12 -30z m20 -56 c3 -5 1 -10 -4 -10 -6 0 -11
5 -11 10 0 6 2 10 4 10 3 0 8 -4 11 -10z m-18 -42 c-3 -8 -6 -5 -6 6 -1 11 2
17 5 13 3 -3 4 -12 1 -19z m137 -3 c30 -14 59 -25 64 -25 5 0 15 -7 22 -15 7
-8 8 -15 4 -15 -5 0 -17 -12 -27 -27 l-18 -28 4 28 c4 25 -1 30 -54 59 -33 17
-59 35 -59 39 0 13 3 12 64 -16z m-104 -25 c0 -25 -4 -30 -25 -30 -19 0 -25 5
-25 21 0 16 5 20 20 16 13 -3 20 0 20 9 0 8 2 14 5 14 3 0 5 -13 5 -30z m75
-20 c-3 6 1 10 10 10 9 0 14 -4 10 -9 -3 -6 3 -14 12 -20 16 -9 16 -10 2 -11
-37 0 -79 13 -79 26 0 10 6 11 26 4 16 -7 23 -7 19 0z m-335 -12 c0 -4 12 -9
28 -11 15 -2 -8 -5 -50 -6 -57 -1 -78 2 -78 12 0 8 17 12 50 12 28 0 50 -3 50
-7z m230 -18 c0 -5 -5 -10 -11 -10 -5 0 -7 5 -4 10 3 6 8 10 11 10 2 0 4 -4 4
-10z m40 -4 c0 -7 -10 -16 -22 -19 -21 -5 -21 -5 -6 7 10 7 15 16 11 19 -3 4
-1 7 5 7 7 0 12 -6 12 -14z m-92 -131 c-21 -12 -36 -24 -32 -28 4 -4 2 -7 -4
-7 -6 0 -14 10 -18 23 -11 33 -13 47 -6 45 4 -1 22 2 40 6 46 11 35 32 -16 28
-54 -3 -63 14 -12 22 22 3 40 12 40 19 0 6 11 -10 24 -38 l23 -50 -39 -20z
m102 87 c0 -5 -13 -7 -30 -4 -16 2 -30 6 -30 8 0 2 14 4 30 4 17 0 30 -4 30
-8z m7 -42 c-1 -13 -6 -16 -17 -11 -8 5 -20 6 -27 4 -6 -2 -14 1 -18 6 -3 6
-1 11 5 11 6 0 9 4 6 8 -3 5 8 6 24 4 20 -3 28 -9 27 -22z m30 -44 c-14 -13
-28 -21 -31 -18 -3 3 -6 0 -6 -6 0 -7 -4 -11 -8 -9 -4 1 -28 -15 -52 -36 -25
-21 -36 -35 -25 -31 16 6 18 5 7 -7 -10 -11 -15 -10 -30 4 -15 15 -15 19 -2
27 8 5 19 24 25 41 6 18 18 35 26 38 11 3 11 1 3 -10 -6 -8 -14 -23 -17 -34
-7 -18 -6 -18 12 2 10 12 21 20 23 17 3 -2 20 13 39 34 28 31 36 35 48 24 11
-11 9 -17 -12 -36z m-157 -56 c0 -5 -2 -10 -4 -10 -3 0 -8 5 -11 10 -3 6 -1
10 4 10 6 0 11 -4 11 -10z m-93 -25 c0 -8 -4 -15 -9 -15 -10 0 -11 14 -1 23 9
10 10 9 10 -8z m-17 -46 c0 -4 -6 -9 -13 -12 -8 -3 -14 0 -14 7 0 7 6 13 14
13 7 0 13 -4 13 -8z"/>
<path d="M2530 3681 c0 -3 4 -12 9 -19 6 -11 9 -9 13 5 3 12 0 20 -8 20 -8 0
-14 -3 -14 -6z"/>
<path d="M1945 4188 c0 -170 4 -289 10 -298 14 -21 22 55 30 290 6 190 6 196
-17 243 l-23 49 0 -284z"/>
<path d="M1156 4302 c5 -5 36 -19 69 -32 33 -13 138 -61 232 -107 147 -72 179
-84 215 -81 l43 3 -120 79 c-66 44 -145 90 -176 102 -72 29 -290 59 -263 36z"/>
<path d="M2045 4240 c-4 -30 -16 -98 -26 -150 -37 -184 -41 -210 -35 -235 4
-14 12 -25 19 -25 12 0 47 101 68 200 12 55 7 176 -10 235 -7 28 -8 27 -16
-25z"/>
<path d="M1135 4101 l-60 -6 95 -8 c52 -4 139 -14 192 -22 71 -11 110 -12 149
-5 28 6 54 10 58 11 3 0 -16 8 -44 16 -55 16 -291 25 -390 14z"/>
<path d="M3155 4096 c-45 -11 -47 -13 -25 -20 45 -13 151 -11 290 4 135 15
135 15 70 21 -108 11 -282 8 -335 -5z"/>
<path d="M2970 4019 c-25 -17 -53 -39 -63 -48 -16 -16 -15 -17 22 -18 24 -1
44 4 51 13 18 21 91 17 205 -10 106 -26 214 -65 180 -65 -11 0 -75 8 -143 17
-83 12 -126 22 -132 32 -7 10 -10 11 -10 3 0 -22 -30 -14 -41 10 -9 22 -10 22
-5 0 4 -21 2 -22 -78 -16 -66 5 -84 3 -94 -10 -14 -17 -24 -15 168 -36 l75 -9
-100 -1 c-126 -2 -153 -5 -167 -19 -7 -7 -17 -12 -23 -12 -6 0 -21 -13 -33
-29 l-22 -30 83 5 c45 3 120 9 167 14 47 5 110 9 140 9 54 -1 53 -1 -36 -19
-50 -10 -127 -28 -170 -41 -44 -12 -85 -22 -91 -22 -7 0 -13 -4 -13 -8 0 -9
-80 -55 -88 -51 -2 2 -8 -1 -11 -6 -3 -6 -13 -12 -21 -14 -8 -2 -21 -9 -28
-16 -8 -7 -18 -9 -24 -6 -7 4 -8 2 -4 -5 9 -13 26 -11 191 26 129 29 255 68
299 93 29 17 68 29 141 44 17 4 -5 -11 -50 -35 -44 -22 -96 -51 -115 -63 -110
-70 -180 -120 -215 -154 -38 -37 -130 -161 -123 -167 6 -5 429 281 483 326 16
13 39 34 51 47 12 12 32 22 45 22 21 -1 18 -4 -15 -22 -22 -11 -74 -54 -115
-96 -65 -65 -72 -76 -56 -82 15 -5 26 1 45 24 36 44 123 127 128 121 3 -2 -9
-26 -25 -52 -17 -26 -41 -67 -54 -91 -22 -41 -22 -42 -3 -56 14 -11 20 -11 22
-3 8 26 86 187 89 184 2 -2 -8 -53 -23 -112 -21 -88 -23 -109 -12 -116 27 -18
29 -14 61 126 l14 60 5 -118 c3 -92 8 -121 21 -134 16 -16 17 -8 18 127 l1
145 29 -169 c32 -192 36 -207 49 -186 7 12 18 12 66 2 92 -19 125 -51 139
-137 l6 -40 -17 33 c-24 46 -70 82 -105 82 -16 0 -29 -2 -29 -4 0 -2 20 -14
45 -26 48 -23 95 -71 95 -98 0 -9 14 -32 31 -50 26 -29 35 -33 57 -26 27 7 27
8 -8 14 -36 7 -30 13 23 24 38 9 34 27 -5 20 l-33 -6 33 21 c17 11 32 28 32
36 0 21 -10 19 -37 -7 -34 -32 -38 -15 -7 32 43 64 32 136 -27 179 l-31 23 36
-52 c20 -29 36 -56 36 -60 0 -14 -21 -64 -28 -70 -4 -3 -18 -18 -30 -34 l-22
-29 0 45 c0 64 -32 108 -99 134 -29 12 -57 28 -62 35 -5 8 -9 9 -9 3 0 -7 -11
-14 -24 -16 -27 -5 -27 -2 -41 217 l-4 70 33 -130 c40 -154 43 -145 16 35 -12
73 -19 134 -17 136 2 3 19 -35 38 -83 37 -98 59 -144 59 -126 0 7 -6 32 -14
55 -21 62 -56 190 -56 206 0 9 6 8 25 -4 30 -20 41 -14 26 14 -8 16 -7 21 5
26 16 6 72 -44 102 -89 7 -11 -2 9 -20 44 -39 77 -94 136 -170 185 -31 20 -60
41 -63 47 -11 17 -86 46 -166 63 -90 19 -170 26 -163 14 3 -4 -8 -8 -25 -8
-16 0 -33 5 -36 10 -3 6 -1 10 6 10 7 0 9 3 5 7 -4 4 -15 -2 -24 -13 -9 -12
-30 -24 -47 -28 -21 -5 -26 -4 -15 3 12 8 12 11 -4 17 -14 5 -15 9 -4 15 7 5
9 9 3 9 -5 -1 -30 -14 -55 -31z m25 -9 c-27 -12 -43 -12 -25 0 8 5 22 9 30 9
10 0 8 -3 -5 -9z m222 4 c-3 -3 -12 -4 -19 -1 -8 3 -5 6 6 6 11 1 17 -2 13 -5z
m103 -34 c8 -5 11 -10 5 -10 -5 0 -17 5 -25 10 -8 5 -10 10 -5 10 6 0 17 -5
25 -10z m-355 -18 c-3 -3 -11 0 -18 7 -9 10 -8 11 6 5 10 -3 15 -9 12 -12z
m482 -29 c65 -23 74 -28 53 -34 -18 -4 -43 4 -90 29 -68 37 -86 49 -58 39 9
-3 52 -18 95 -34z m-244 -60 c-7 -2 -21 -2 -30 0 -10 3 -4 5 12 5 17 0 24 -2
18 -5z m55 -50 c-10 -2 -26 -2 -35 0 -10 3 -2 5 17 5 19 0 27 -2 18 -5z"/>
<path d="M2616 3998 c-13 -52 -7 -127 14 -148 11 -11 24 -20 28 -20 10 0 -16
171 -28 183 -4 5 -10 -2 -14 -15z"/>
<path d="M1136 3944 c-99 -19 -102 -25 -11 -19 51 3 85 10 94 20 19 19 13 19
-83 -1z"/>
<path d="M2990 3950 c0 -5 5 -10 10 -10 6 0 10 5 10 10 0 6 -4 10 -10 10 -5 0
-10 -4 -10 -10z"/>
<path d="M3103 3945 c0 -8 4 -12 9 -9 5 3 6 10 3 15 -9 13 -12 11 -12 -6z"/>
<path d="M2670 3780 c0 -5 5 -10 11 -10 5 0 7 5 4 10 -3 6 -8 10 -11 10 -2 0
-4 -4 -4 -10z"/>
<path d="M2685 3750 c3 -5 11 -10 16 -10 6 0 7 5 4 10 -3 6 -11 10 -16 10 -6
0 -7 -4 -4 -10z"/>
<path d="M2645 3710 c3 -5 17 -10 31 -10 13 0 24 5 24 10 0 6 -14 10 -31 10
-17 0 -28 -4 -24 -10z"/>
<path d="M2780 3620 c-12 -7 -10 -9 7 -7 12 0 19 5 17 9 -6 10 -6 10 -24 -2z"/>
<path d="M2706 3593 c10 -40 14 -41 14 -5 0 18 -5 32 -10 32 -6 0 -8 -11 -4
-27z"/>
<path d="M2658 3605 c-5 -5 13 -70 23 -79 2 -2 4 13 4 34 0 28 -3 36 -14 32
-9 -3 -12 -1 -7 6 7 12 4 16 -6 7z"/>
<path d="M2746 3582 c-3 -5 1 -9 9 -9 8 0 12 4 9 9 -3 4 -7 8 -9 8 -2 0 -6 -4
-9 -8z"/>
<path d="M2642 3551 c1 -18 8 -37 14 -42 9 -7 10 -1 4 26 -11 48 -21 57 -18
16z"/>
<path d="M2590 3486 c0 -8 4 -17 9 -20 5 -4 7 3 4 14 -6 23 -13 26 -13 6z"/>
<path d="M3207 3467 c-27 -23 -35 -36 -28 -46 8 -12 16 -9 44 16 19 17 41 33
49 36 10 4 10 7 -2 16 -21 15 -20 15 -63 -22z"/>
<path d="M764 3468 c27 -15 118 -16 123 0 4 9 -14 12 -69 12 -58 -1 -69 -3
-54 -12z"/>
<path d="M1416 3452 c-3 -5 10 -24 29 -42 19 -19 35 -37 35 -42 0 -4 -24 4
-52 17 -66 31 -79 31 -107 1 l-23 -24 44 -11 c164 -40 164 -39 33 -34 l-120 5
-60 -55 -60 -54 164 23 c90 13 166 22 168 20 3 -2 -2 -13 -9 -25 -10 -16 -23
-21 -58 -21 -86 -1 -198 -28 -282 -67 -64 -31 -100 -57 -158 -114 -69 -68
-140 -154 -182 -219 -9 -14 -26 -35 -37 -47 -12 -13 -18 -23 -14 -23 5 0 36
29 69 63 34 35 97 90 140 123 44 32 85 64 92 71 56 54 284 153 347 152 17 0
23 -3 15 -6 -65 -23 -180 -79 -218 -105 -76 -52 -166 -149 -195 -208 -14 -30
-43 -83 -62 -117 -20 -35 -34 -63 -31 -63 3 0 46 53 95 118 121 161 180 212
319 278 63 30 115 54 116 54 2 0 -39 -42 -91 -92 -114 -112 -152 -162 -188
-248 -15 -36 -33 -78 -40 -95 -8 -16 -22 -56 -31 -88 -15 -48 -24 -61 -49 -72
l-30 -13 28 -1 c20 -1 26 -5 21 -13 -6 -10 -4 -10 7 0 10 9 78 12 271 12 169
0 258 4 258 10 0 19 -48 29 -197 40 -81 6 -148 12 -150 13 -1 1 6 12 15 24
l17 21 128 -23 129 -23 -6 22 c-3 11 -6 28 -6 36 0 25 -99 42 -162 29 -27 -6
-52 -9 -54 -6 -3 3 14 35 36 73 68 110 112 220 121 301 4 40 12 80 17 90 6 10
15 45 22 78 7 33 23 88 35 122 l24 61 -49 51 c-48 50 -64 59 -74 43z m-52
-553 c-25 -74 -61 -166 -80 -206 -28 -60 -38 -72 -61 -75 -27 -4 -27 -5 -6
-14 21 -9 21 -10 5 -30 -12 -16 -33 -24 -76 -29 l-58 -7 18 32 c11 18 54 87
96 153 42 67 105 168 140 224 35 57 64 99 66 95 1 -5 -18 -69 -44 -143z"/>
<path d="M3077 3391 c-20 -38 -44 -74 -52 -81 -15 -13 -20 -42 -9 -53 4 -3 18
2 31 13 36 28 103 36 142 16 17 -9 31 -12 31 -7 0 17 -58 42 -111 48 -27 3
-49 9 -49 13 0 4 16 31 35 59 37 53 40 61 27 61 -4 0 -25 -31 -45 -69z"/>
<path d="M3282 3413 c-71 -24 -73 -26 -67 -52 8 -33 6 -32 41 -20 16 5 65 18
109 27 l80 18 -42 27 c-24 15 -44 27 -45 26 -2 0 -36 -12 -76 -26z"/>
<path d="M2370 3359 c0 -5 5 -7 10 -4 6 3 10 8 10 11 0 2 -4 4 -10 4 -5 0 -10
-5 -10 -11z"/>
<path d="M2411 3354 c0 -11 3 -14 6 -6 3 7 2 16 -1 19 -3 4 -6 -2 -5 -13z"/>
<path d="M2436 3343 c-6 -14 -5 -15 5 -6 7 7 10 15 7 18 -3 3 -9 -2 -12 -12z"/>
<path d="M2443 3313 c9 -2 15 -9 12 -14 -4 -5 -1 -9 4 -9 6 0 11 5 11 11 0 5
4 8 9 4 5 -3 12 -2 15 3 2 4 -12 8 -32 9 -20 1 -29 -1 -19 -4z"/>
<path d="M3241 3290 c7 -17 21 -36 33 -40 23 -10 346 -54 350 -48 2 1 -22 26
-53 54 l-56 52 -142 7 -143 7 11 -32z"/>
<path d="M2373 3285 c0 -8 6 -16 14 -19 11 -4 11 -1 3 14 -13 24 -17 25 -17 5z"/>
<path d="M765 3242 c-71 -29 -236 -112 -219 -112 5 0 54 7 109 16 55 8 120 18
143 21 46 6 47 7 57 66 7 45 4 46 -90 9z"/>
<path d="M2188 3263 c7 -3 16 -2 19 1 4 3 -2 6 -13 5 -11 0 -14 -3 -6 -6z"/>
<path d="M3149 3250 c-21 -17 -22 -21 -9 -30 8 -5 27 -10 41 -10 30 0 47 -16
59 -57 7 -24 8 -25 9 -6 1 12 -4 44 -9 70 -10 44 -14 49 -39 51 -17 1 -39 -6
-52 -18z"/>
<path d="M2337 3235 c-4 -8 -2 -17 3 -20 6 -4 10 3 10 14 0 25 -6 27 -13 6z"/>
<path d="M3910 3187 l0 -34 88 -11 c48 -5 88 -9 90 -7 3 3 -162 85 -172 85 -3
0 -6 -15 -6 -33z"/>
<path d="M3278 3180 c4 -26 11 -31 61 -45 82 -24 203 -87 290 -152 95 -71 204
-162 213 -178 4 -7 19 -20 33 -29 29 -19 42 -38 -113 167 -113 150 -257 234
-448 261 -40 6 -40 5 -36 -24z"/>
<path d="M3280 3102 c0 -25 7 -31 54 -51 89 -37 172 -97 237 -173 54 -62 145
-182 187 -244 7 -10 -13 33 -44 96 -91 183 -169 268 -324 349 -53 28 -100 51
-104 51 -3 0 -6 -13 -6 -28z"/>
<path d="M2230 3091 c0 -25 6 -27 13 -6 4 8 2 17 -3 20 -6 4 -10 -3 -10 -14z"/>
<path d="M2180 3076 c0 -2 7 -7 16 -10 8 -3 12 -2 9 4 -6 10 -25 14 -25 6z"/>
<path d="M2190 3041 c0 -6 4 -13 10 -16 6 -3 7 1 4 9 -7 18 -14 21 -14 7z"/>
<path d="M3268 3045 c-10 -11 23 -88 67 -157 25 -38 45 -71 45 -73 0 -5 68
-111 83 -130 15 -18 85 -140 83 -143 -2 -1 -30 1 -63 4 -50 6 -63 11 -71 29
-9 19 -7 24 11 33 21 10 21 11 -5 11 -32 1 -57 43 -104 176 l-29 80 -8 -41
c-8 -37 -6 -46 37 -118 26 -43 45 -81 42 -83 -3 -3 -25 -1 -50 5 -48 10 -56 4
-56 -40 0 -19 4 -20 57 -13 31 4 61 9 67 11 10 4 41 -34 34 -41 -2 -2 -39 -7
-83 -10 -85 -7 -132 -22 -140 -42 -3 -10 39 -13 199 -13 154 0 206 -3 209 -12
4 -10 6 -10 6 0 1 6 13 12 29 12 l27 0 -33 18 c-30 15 -37 28 -67 118 -47 142
-71 189 -131 264 -64 79 -148 163 -156 155z"/>
<path d="M3828 3033 c7 -3 16 -2 19 1 4 3 -2 6 -13 5 -11 0 -14 -3 -6 -6z"/>
<path d="M2063 2964 c15 -5 17 -13 14 -41 -5 -33 -4 -34 14 -17 20 18 26 29
10 19 -5 -3 -11 5 -13 17 -2 14 -11 24 -23 25 -17 2 -17 1 -2 -3z"/>
<path d="M1890 2831 c0 -6 5 -13 10 -16 6 -4 8 -10 6 -14 -6 -9 31 -7 40 2 4
4 -2 7 -14 7 -13 0 -22 6 -22 15 0 8 -4 15 -10 15 -5 0 -10 -4 -10 -9z"/>
<path d="M1890 2770 c0 -5 5 -10 11 -10 5 0 7 5 4 10 -3 6 -8 10 -11 10 -2 0
-4 -4 -4 -10z"/>
<path d="M1695 2550 c3 -5 8 -10 11 -10 2 0 4 5 4 10 0 6 -5 10 -11 10 -5 0
-7 -4 -4 -10z"/>
<path d="M1520 2470 c-25 -4 -133 -19 -240 -34 -238 -32 -299 -42 -370 -62
-54 -16 -125 -52 -117 -61 4 -3 544 84 697 112 14 3 -15 -15 -65 -38 -49 -24
-133 -64 -185 -90 -52 -25 -153 -73 -225 -106 -71 -33 -124 -61 -117 -61 46 0
400 115 457 150 44 26 185 100 191 100 4 0 -71 -96 -86 -110 -17 -15 -103
-135 -141 -195 -24 -38 -49 -75 -55 -82 -28 -29 -73 -162 -83 -248 -20 -162
-12 -186 28 -82 71 186 274 587 297 587 2 0 -8 -26 -22 -57 -42 -93 -72 -195
-83 -281 -11 -88 -3 -354 11 -346 4 3 8 23 8 44 0 159 72 508 130 629 22 46
42 82 44 80 2 -2 -5 -47 -15 -99 -13 -60 -22 -159 -26 -271 -5 -155 -3 -193
17 -310 12 -74 26 -143 31 -154 7 -16 8 -14 4 10 -3 17 -8 161 -11 320 -7 303
-3 359 42 491 13 39 12 43 -22 107 -19 37 -38 66 -42 66 -4 -1 -27 -5 -52 -9z"/>
<path d="M3142 2415 l-22 -45 23 -13 c65 -40 191 -102 257 -127 92 -34 331
-103 336 -97 3 2 -24 17 -58 32 -35 16 -139 65 -233 110 -93 45 -199 95 -235
111 -35 16 -57 30 -48 32 9 2 163 -22 342 -52 357 -61 350 -60 341 -46 -9 15
-95 50 -160 65 -43 10 -493 75 -519 75 -1 0 -12 -20 -24 -45z"/>
<path d="M3085 2316 l-19 -35 32 -63 c18 -35 43 -112 57 -173 24 -111 64 -396
67 -483 1 -40 2 -37 8 23 12 109 11 305 -1 371 -12 72 -53 203 -80 258 -45 91
19 -8 88 -138 76 -142 132 -262 184 -398 19 -49 37 -88 42 -88 20 0 -11 216
-44 306 -19 50 -108 205 -139 241 -8 10 -48 62 -88 116 -40 53 -77 97 -81 97
-4 0 -16 -15 -26 -34z"/>
<path d="M1657 2300 c-34 -227 -35 -337 -7 -476 21 -102 26 -116 34 -93 12 35
35 179 35 219 0 44 26 183 37 202 3 5 0 15 -6 24 -7 8 -30 47 -50 86 l-38 72
-5 -34z"/>
<path d="M2480 2250 c0 -5 -3 -9 -7 -7 -9 2 -13 -6 -13 -28 0 -8 5 -15 10 -15
6 0 10 6 8 14 -2 8 6 22 17 30 18 14 18 15 3 16 -10 0 -18 -4 -18 -10z"/>
<path d="M3036 2222 c-4 -11 -2 -49 4 -84 5 -34 10 -117 11 -183 0 -66 6 -149
13 -185 l13 -65 8 70 c9 79 2 251 -16 370 -12 85 -23 110 -33 77z"/>
<path d="M2420 2219 c0 -6 -4 -8 -10 -4 -5 3 -44 -13 -87 -35 -43 -22 -67 -39
-53 -36 14 2 46 8 73 11 26 4 47 10 47 14 0 3 4 12 9 20 8 13 12 13 28 1 10
-8 15 -10 11 -6 -4 5 -3 15 2 21 8 9 6 14 -5 19 -8 3 -15 1 -15 -5z"/>
<path d="M2491 2214 c0 -11 3 -14 6 -6 3 7 2 16 -1 19 -3 4 -6 -2 -5 -13z"/>
<path d="M2938 2193 c7 -3 16 -2 19 1 4 3 -2 6 -13 5 -11 0 -14 -3 -6 -6z"/>
<path d="M2405 2180 c-3 -5 -1 -10 4 -10 6 0 11 5 11 10 0 6 -2 10 -4 10 -3 0
-8 -4 -11 -10z"/>
<path d="M2911 2166 c-6 -7 -8 -16 -4 -19 3 -4 0 -7 -8 -7 -11 0 -11 -2 1 -10
12 -8 12 -10 -5 -10 -17 0 -17 -2 -5 -10 12 -8 12 -10 -5 -10 -17 0 -17 -2 -5
-10 12 -8 12 -10 -5 -10 -15 0 -17 -2 -6 -9 11 -7 10 -10 -5 -14 -16 -4 -16
-5 -2 -6 11 -1 25 14 38 39 11 22 17 40 13 40 -5 0 -1 5 7 10 13 9 13 10 0 11
-10 0 -9 3 4 8 12 5 15 10 9 14 -6 4 -16 1 -22 -7z"/>
<path d="M2786 2121 c-4 -6 -5 -11 -3 -11 3 0 -8 -14 -25 -32 -33 -35 -93
-147 -84 -156 3 -3 6 0 6 6 0 6 22 40 50 76 32 41 45 66 37 69 -7 3 -6 6 4 6
24 1 45 29 32 42 -8 8 -13 7 -17 0z"/>
<path d="M2950 2090 c0 -6 5 -8 11 -4 6 3 16 0 21 -7 8 -12 9 -11 5 1 -4 18
-37 27 -37 10z"/>
<path d="M2600 2060 c-6 -11 -22 -23 -35 -26 -28 -7 -59 12 -48 30 4 6 -1 5
-10 -3 -17 -13 -24 -37 -9 -27 5 3 9 -1 9 -9 0 -8 -4 -12 -8 -10 -4 3 -10 -2
-13 -11 -4 -9 -13 -13 -24 -10 -13 4 -26 -7 -50 -43 -17 -28 -32 -52 -32 -55
0 -3 13 3 30 12 16 9 30 23 30 30 0 6 3 11 8 10 7 -3 192 110 192 117 0 1 -7
5 -15 9 -9 3 -19 -3 -25 -14z"/>
<path d="M1770 2052 c59 -27 96 -82 115 -171 7 -34 6 -33 -57 32 -35 37 -69
67 -76 67 -25 0 -10 -32 43 -95 30 -36 55 -69 55 -74 0 -5 -23 -2 -50 6 -55
16 -80 12 -80 -12 0 -11 11 -15 38 -16 20 -1 48 -5 62 -9 23 -7 23 -8 3 -9
-34 -2 -110 -38 -117 -56 -15 -41 -5 -43 51 -9 64 38 114 51 146 37 19 -9 14
-11 -33 -18 -47 -6 -61 -13 -95 -49 -22 -23 -51 -62 -64 -86 l-25 -45 46 47
c90 91 239 141 285 96 16 -17 16 -18 -6 -18 -12 0 -31 -5 -42 -10 -18 -10 -68
-99 -90 -158 l-9 -27 22 27 c13 15 34 41 47 58 12 17 39 39 60 50 48 26 107
98 92 113 -6 6 -11 31 -11 57 0 54 -9 90 -22 90 -5 0 -7 -3 -5 -7 3 -5 1 -17
-4 -28 -7 -19 -8 -19 -8 2 -2 48 -31 77 -31 31 0 -13 -8 -33 -18 -46 -17 -22
-18 -21 -14 45 3 50 0 73 -12 88 -14 19 -15 17 -16 -32 0 -29 -3 -53 -7 -53
-5 0 -21 33 -37 72 -37 92 -63 118 -113 117 -22 0 -32 -3 -23 -7z"/>
<path d="M2966 2043 c-6 -15 -8 -15 -16 -3 -15 23 -11 -2 4 -29 l13 -23 7 32
c7 37 2 51 -8 23z"/>
<path d="M2840 2030 c0 -13 11 -13 30 0 12 8 11 10 -7 10 -13 0 -23 -4 -23
-10z"/>
<path d="M2845 2010 c-14 -6 -15 -9 -5 -10 12 0 11 -4 -4 -15 -11 -8 -15 -15
-8 -15 6 0 9 -7 6 -15 -4 -8 -1 -15 6 -15 7 0 10 8 7 20 -3 11 -2 20 3 20 4 0
10 9 13 20 3 11 4 20 4 19 -1 0 -11 -4 -22 -9z"/>
<path d="M2840 1910 c-62 -11 -120 -33 -169 -64 -38 -25 -41 -29 -41 -73 0
-41 4 -50 40 -83 22 -20 42 -35 45 -32 3 3 5 -10 5 -29 0 -20 7 -44 15 -55 13
-18 14 -16 16 26 l1 45 16 -62 c8 -34 21 -64 29 -67 18 -7 16 23 -6 107 -9 37
-16 67 -14 67 6 0 71 -142 78 -172 6 -25 35 -48 35 -28 0 21 -42 119 -70 163
-67 105 50 -6 126 -121 57 -85 60 -85 16 3 -41 81 -76 123 -144 168 -20 13
-34 27 -31 31 3 3 27 -12 52 -32 25 -21 69 -53 97 -70 28 -18 64 -44 80 -57
38 -33 44 -32 44 9 0 30 -6 38 -47 64 -27 17 -79 47 -118 67 -56 28 -63 34
-35 29 19 -4 67 -20 107 -35 89 -36 93 -36 84 -2 -6 23 -16 30 -57 39 -79 17
-84 24 -16 21 57 -2 63 0 60 18 -2 11 -14 22 -28 26 -24 7 -24 7 -2 8 12 1 22
6 22 12 0 11 -84 8 -182 -7 -64 -9 -61 1 8 23 48 15 57 15 65 3 7 -13 9 -12 9
1 0 12 14 19 48 26 l47 9 -34 17 c-36 18 -77 20 -151 7z m77 -6 c-3 -3 -12 -4
-19 -1 -8 3 -5 6 6 6 11 1 17 -2 13 -5z m-47 -14 c-8 -5 -19 -10 -25 -10 -5 0
-3 5 5 10 8 5 20 10 25 10 6 0 3 -5 -5 -10z m-103 -46 c-27 -14 -58 -24 -70
-22 -15 2 -4 10 38 25 80 28 90 27 32 -3z"/>
<path d="M2180 1882 c0 -9 47 -25 102 -37 15 -3 44 -19 63 -36 20 -18 39 -28
43 -25 9 10 -54 63 -103 86 -41 20 -105 27 -105 12z"/>
<path d="M2113 1775 c0 -38 2 -53 4 -32 2 20 2 52 0 70 -2 17 -4 1 -4 -38z"/>
<path d="M2304 1801 c3 -5 16 -11 28 -14 22 -6 22 -5 4 8 -22 17 -40 20 -32 6z"/>
<path d="M1980 1560 c-23 -27 -38 -50 -34 -50 20 0 75 48 83 73 15 41 -2 33
-49 -23z"/>
<path d="M1840 1315 l-44 -45 44 0 c39 0 51 6 88 41 23 22 42 42 42 44 0 3
-19 5 -43 5 -38 0 -48 -6 -87 -45z"/>
<path d="M656 1215 c-110 -45 -159 -116 -160 -230 -1 -88 15 -133 63 -184 48
-51 112 -80 174 -81 65 0 106 19 150 70 31 37 37 51 37 91 0 31 -8 61 -21 83
-21 36 -22 36 -90 36 l-69 0 0 -49 c0 -44 3 -50 22 -53 13 -2 24 -11 26 -20 6
-29 -78 -25 -106 5 -44 47 -50 110 -15 163 20 31 66 47 118 42 l45 -6 0 68 c0
67 0 68 -31 79 -47 16 -77 13 -143 -14z"/>
<path d="M1082 1219 c-40 -16 -60 -31 -80 -62 -27 -40 -27 -43 -30 -234 l-4
-193 76 0 76 0 0 55 c0 48 2 55 20 55 18 0 20 7 20 65 0 58 -2 65 -20 65 -17
0 -20 7 -20 48 0 26 5 53 12 60 17 17 45 15 52 -4 3 -9 6 -90 6 -180 l0 -165
73 3 72 3 -1 190 c-1 235 -7 254 -89 290 -67 30 -93 30 -163 4z"/>
<path d="M1791 1225 c-24 -7 -54 -24 -68 -37 -47 -43 -53 -73 -53 -273 l0
-185 70 0 70 0 0 55 c0 52 1 55 25 55 24 0 25 2 25 65 0 63 -1 65 -26 65 -24
0 -25 2 -22 51 3 55 21 78 52 66 14 -6 16 -29 16 -182 l0 -175 75 0 75 0 0
184 c0 112 -4 196 -12 217 -14 43 -57 83 -107 97 -47 15 -64 14 -120 -3z"/>
<path d="M2214 1211 c-51 -24 -64 -35 -82 -73 -20 -40 -22 -60 -22 -226 l0
-182 75 0 75 0 2 178 3 177 24 3 c13 2 27 -2 32 -9 10 -17 -7 -49 -26 -49 -12
0 -15 -15 -15 -66 l0 -67 52 7 c69 9 104 32 128 81 43 89 10 181 -81 227 -67
34 -89 34 -165 -1z"/>
<path d="M2653 1224 c-50 -18 -108 -81 -117 -126 -3 -17 -6 -106 -6 -199 l0
-169 75 0 75 0 0 55 c0 48 2 55 20 55 18 0 20 7 20 65 0 58 -2 65 -20 65 -17
0 -20 7 -20 48 0 58 10 75 41 70 l24 -3 3 -177 2 -178 70 0 70 0 0 193 c0 165
-3 198 -19 233 -31 69 -131 100 -218 68z"/>
<path d="M3128 1220 c-107 -40 -158 -108 -166 -218 -8 -124 36 -210 134 -258
101 -49 225 -19 269 66 20 38 19 111 -2 155 l-17 35 -73 0 -73 0 0 -50 c0 -46
2 -50 24 -50 23 0 41 -22 29 -34 -9 -8 -76 -7 -88 2 -54 38 -69 113 -35 170
24 40 61 55 118 49 l42 -5 0 68 c0 67 0 68 -31 79 -43 15 -75 13 -131 -9z"/>
<path d="M3612 1224 c-83 -26 -150 -82 -178 -150 -18 -43 -18 -155 0 -199 22
-51 73 -102 133 -131 45 -22 63 -26 121 -22 169 9 278 145 244 306 -21 98 -79
160 -184 197 -51 18 -79 18 -136 -1z m117 -147 c13 -6 33 -29 44 -50 27 -52
17 -96 -30 -137 -32 -28 -41 -32 -77 -27 -137 19 -124 224 14 226 14 0 36 -5
49 -12z"/>
<path d="M4125 1221 c-103 -47 -132 -144 -78 -263 31 -70 25 -93 -26 -93 l-31
0 0 -67 c0 -64 1 -68 26 -74 70 -18 159 19 201 82 26 40 21 120 -11 183 -33
63 -26 101 19 101 24 0 25 2 25 65 0 53 -3 66 -19 75 -28 15 -61 12 -106 -9z"/>
<path d="M1420 1026 c0 -184 1 -195 23 -226 29 -43 81 -70 134 -70 l43 0 0 70
c0 63 -2 70 -20 70 -33 0 -40 32 -40 194 l0 156 -70 0 -70 0 0 -194z"/>
</g>
</svg>
