<?xml version="1.0" standalone="no"?>
<!DOCTYPE svg PUBLIC "-//W3C//DTD SVG 20010904//EN"
 "http://www.w3.org/TR/2001/REC-SVG-20010904/DTD/svg10.dtd">
<svg version="1.0" xmlns="http://www.w3.org/2000/svg"
 width="600.000000pt" height="600.000000pt" viewBox="0 0 600.000000 600.000000"
 preserveAspectRatio="xMidYMid meet">

<g transform="translate(0.000000,600.000000) scale(0.100000,-0.100000)"
fill="#000000" stroke="none">
<path d="M2945 5919 c-139 -19 -218 -75 -533 -379 -426 -411 -1664 -1661
-1706 -1722 -110 -164 -114 -292 -12 -394 37 -37 69 -57 116 -74 l65 -24 577
-4 577 -3 4 -797 c4 -912 0 -872 97 -1067 103 -205 258 -347 471 -430 111 -44
193 -55 399 -55 206 0 288 11 399 55 213 83 368 225 471 430 97 195 93 155 97
1067 l4 797 577 3 c569 4 578 4 637 26 83 31 120 59 158 116 28 45 32 57 32
125 0 89 -17 132 -90 231 -54 71 -1567 1595 -1814 1827 -160 149 -257 222
-332 249 -61 22 -135 31 -194 23z m83 -386 c15 -9 56 -42 92 -72 77 -66 1770
-1752 1770 -1763 0 -4 -292 -8 -650 -8 l-650 0 0 -953 c0 -812 -2 -961 -15
-1010 -48 -186 -192 -328 -376 -372 -86 -20 -312 -20 -398 0 -184 44 -328 186
-376 372 -13 49 -15 198 -15 1010 l0 953 -655 0 c-360 0 -655 3 -655 8 0 8
1422 1428 1657 1655 115 111 220 197 240 197 2 0 16 -8 31 -17z"/>
<path d="M2 1253 l3 -548 27 -73 c83 -228 265 -382 505 -428 112 -21 4814 -21
4926 0 240 46 422 200 505 428 l27 73 3 548 3 547 -205 0 -205 0 -3 -507 c-3
-464 -5 -511 -21 -548 -23 -51 -61 -91 -112 -118 l-40 -22 -2415 0 -2415 0
-41 22 c-45 24 -99 80 -117 122 -8 18 -13 176 -15 539 l-3 512 -205 0 -205 0
3 -547z"/>
</g>
</svg>
